<?xml version="1.0" encoding="utf-8"?><svg viewBox="0 0 512 512" xmlns="http://www.w3.org/2000/svg" xmlns:xlink="http://www.w3.org/1999/xlink"><style>:root>svg{display:none}:root>svg:target{display:block}</style><svg viewBox="0 0 24 24" id="err" xmlns="http://www.w3.org/2000/svg"><path fill-rule="evenodd" clip-rule="evenodd" d="M17.542 19.538a1.333 1.333 0 101.885-1.885L13.772 12l5.654-5.653A1.333 1.333 0 1017.54 4.46l-5.653 5.654-5.653-5.653a1.333 1.333 0 10-1.884 1.884L10.003 12 4.35 17.653a1.333 1.333 0 001.884 1.884l5.654-5.653 5.654 5.654z"/></svg><svg viewBox="0 0 64 64" id="exit" xmlns="http://www.w3.org/2000/svg"><g><path d="M55.684 31.265l-10-9a1 1 0 00-1.67.743v4h-11a1 1 0 00-1 1v8a1 1 0 001 1h11v4a1 1 0 001.67.743l10-9a1.031 1.031 0 000-1.486z" data-original="#000000"/><path d="M37 39a1 1 0 00-1 1v15h-6V9h6v15a1 1 0 002 0V8a1 1 0 00-1-1h-7V3a1.004 1.004 0 00-.385-.788.988.988 0 00-.857-.182l-20 5A1 1 0 008 8v48a1 1 0 00.758.97l20 5a.993.993 0 00.857-.181A1.011 1.011 0 0030 61v-4h7a1 1 0 001-1V40a1 1 0 00-1-1zm-11-4a1 1 0 01-2 0v-6a1 1 0 012 0z" data-original="#000000"/></g></svg><svg viewBox="0 0 512 512" id="refresh" xmlns="http://www.w3.org/2000/svg"><path d="M446.709 166.059c-4.698-7.51-14.73-9.243-21.724-4.043l-48.677 36.519c-6.094 4.585-7.793 13.023-3.926 19.6C384.73 239.156 391 261.656 391 285.02 391 359.464 330.443 422 256 422s-135-62.536-135-136.98c0-69.375 52.588-126.68 120-134.165v44.165c0 12.434 14.266 19.357 23.994 11.997l120-90c8.006-5.989 7.994-18.014 0-23.994l-120-90C255.231-4.37 241 2.626 241 15.02v45.498C123.9 68.267 31 166.001 31 285.02 31 409.093 131.928 512 256 512s225-102.907 225-226.98c0-41.982-11.865-83.115-34.291-118.961z" data-original="#000000"/></svg><svg viewBox="0 0 512 512" id="refresh2" xmlns="http://www.w3.org/2000/svg"><path d="M403.678 272c0 40.005-15.615 77.651-43.989 106.011C331.33 406.385 293.683 422 253.678 422c-40.005 0-77.651-15.615-106.011-43.989-28.374-28.359-43.989-66.006-43.989-106.011s15.615-77.651 43.989-106.011C176.027 137.615 213.673 122 253.678 122c25.298 0 49.849 6.343 71.88 18.472L267.023 212h231.299L440.49 0l-57.393 70.13C344.323 45.14 299.865 32 253.678 32c-64.116 0-124.395 24.961-169.702 70.298C38.639 147.605 13.678 207.884 13.678 272s24.961 124.395 70.298 169.702C129.284 487.039 189.562 512 253.678 512s124.395-24.961 169.702-70.298c45.337-45.308 70.298-105.586 70.298-169.702v-15h-90v15z" data-original="#000000"/></svg></svg>